<svg width="128" height="128" viewBox="0 0 128 128" fill="none" xmlns="http://www.w3.org/2000/svg">
<path d="M31.9999 69.3334C17.2799 69.3334 5.33325 81.2267 5.33325 96C5.33325 110.773 17.2799 122.667 31.9999 122.667C46.7199 122.667 58.6666 110.72 58.6666 96C58.6666 81.28 46.7733 69.3334 31.9999 69.3334ZM21.1199 85.1201H31.9999C34.0266 85.1201 35.6265 86.7734 35.6265 88.7467C35.6265 90.72 33.9733 92.3734 31.9999 92.3734H21.1199C19.0932 92.3734 17.4932 90.72 17.4932 88.7467C17.4932 86.7734 19.0932 85.1201 21.1199 85.1201ZM42.88 106.88H21.0667C19.04 106.88 17.4399 105.227 17.4399 103.253C17.4399 101.28 19.0933 99.6267 21.0667 99.6267H42.88C44.9066 99.6267 46.5066 101.28 46.5066 103.253C46.5066 105.227 44.9066 106.88 42.88 106.88Z" fill="#59BB58"/>
<path opacity="0.4" d="M90.6667 16H37.3334C21.3334 16 10.6667 24 10.6667 42.6667V59.4133C10.6667 63.3067 14.6668 65.76 18.2402 64.2133C24.1068 61.6533 30.7733 60.6933 37.76 61.8133C51.7333 64.1066 63.1467 75.1467 65.9734 89.0134C66.7734 93.0667 66.8801 97.0133 66.3468 100.8C65.9201 103.947 68.48 106.72 71.6267 106.72H90.6667C106.667 106.72 117.333 98.72 117.333 80.0533V42.72C117.333 24 106.667 16 90.6667 16Z" fill="#59BB58"/>
<path d="M64 63.3067C59.52 63.3067 54.9866 61.9201 51.52 59.0934L34.8266 45.7601C33.1199 44.3734 32.8 41.8667 34.1866 40.16C35.5733 38.4534 38.0799 38.1334 39.7866 39.5201L56.4799 52.8534C60.5333 56.1067 67.4133 56.1067 71.4666 52.8534L88.1599 39.5201C89.8666 38.1334 92.4265 38.4 93.7599 40.16C95.1465 41.8667 94.8799 44.4267 93.1199 45.7601L76.4265 59.0934C73.0132 61.9201 68.48 63.3067 64 63.3067Z" fill="#59BB58"/>
</svg>
