<svg width="128" height="128" viewBox="0 0 128 128" fill="none" xmlns="http://www.w3.org/2000/svg">
<path d="M104 42.6667C111.364 42.6667 117.333 36.6971 117.333 29.3333C117.333 21.9695 111.364 16 104 16C96.6362 16 90.6667 21.9695 90.6667 29.3333C90.6667 36.6971 96.6362 42.6667 104 42.6667Z" fill="#59BB58"/>
<path d="M104 42.6667C111.364 42.6667 117.333 36.6971 117.333 29.3333C117.333 21.9695 111.364 16 104 16C96.6362 16 90.6667 21.9695 90.6667 29.3333C90.6667 36.6971 96.6362 42.6667 104 42.6667Z" fill="#59BB58"/>
<path opacity="0.4" d="M110.507 49.6533C113.867 48.5867 117.333 51.2 117.333 54.7734V82.72C117.333 101.387 106.667 109.387 90.6667 109.387H37.3333C21.3333 109.387 10.6667 101.387 10.6667 82.72V45.3866C10.6667 26.72 21.3333 18.72 37.3333 18.72H77.9199C81.3866 18.72 83.7333 21.92 83.0933 25.28C82.4533 28.4267 82.56 31.7867 83.52 35.2533C85.4933 42.4 91.3066 48.1066 98.4533 49.9733C102.667 51.04 106.773 50.8267 110.507 49.6533Z" fill="#59BB58"/>
<path d="M64 68.64C59.52 68.64 54.9866 67.2534 51.52 64.4267L34.8266 51.0934C33.1199 49.7067 32.8 47.2 34.1866 45.4934C35.5733 43.7867 38.0799 43.4667 39.7866 44.8534L56.4799 58.1867C60.5333 61.4401 67.4133 61.4401 71.4666 58.1867L77.7599 53.1734C79.4665 51.7867 82.0266 52.0533 83.36 53.8133C84.7466 55.52 84.48 58.08 82.72 59.4134L76.4265 64.4267C73.0132 67.2534 68.48 68.64 64 68.64Z" fill="#59BB58"/>
</svg>
